<svg xmlns="http://www.w3.org/2000/svg" xmlns:xlink="http://www.w3.org/1999/xlink" fill="none" version="1.1" width="16" height="16" viewBox="0 0 16 16"><defs><clipPath id="master_svg0_0_1202/0_345/0_219"><rect x="0" y="0" width="16" height="16" rx="0"/></clipPath></defs><g clip-path="url(#master_svg0_0_1202/0_345/0_219)"><g><path d="M1.1589888125,2.49248490625Q0.5330078125,3.11846590625,0.5330078125,3.99983390625L0.5330078125,11.99983390625Q0.5330078125,12.88120390625,1.1589888125,13.50720390625Q1.7849708125000001,14.13320390625,2.6663378125,14.13320390625L13.3330078125,14.13320390625Q14.2144078125,14.13320390625,14.8404078125,13.50720390625Q15.4663078125,12.88120390625,15.4663078125,11.99983390625L15.4663078125,3.99983390625Q15.4663078125,3.11846690625,14.8404078125,2.49248490625Q14.2144078125,1.86650390625,13.3330078125,1.86650390625L2.6663378125,1.86650390625Q1.7849698125,1.86650390625,1.1589888125,2.49248490625ZM2.1330078125,5.53636390625L2.1330078125,11.99983390625Q2.1330078125,12.21846390625,2.2903608125,12.37581390625Q2.4477178125,12.53317390625,2.6663378125,12.53317390625L13.3330078125,12.53317390625Q13.5516078125,12.53317390625,13.7090078125,12.37581390625Q13.8663078125,12.21846390625,13.8663078125,11.99983390625L13.8663078125,5.53636390625L8.458447812500001,9.32189390625Q8.4083178125,9.35698390625,8.3534278125,9.38403390625Q8.2985478125,9.411093906249999,8.2401878125,9.42949390625Q8.1818278125,9.44789390625,8.1213478125,9.45719390625Q8.0608678125,9.46650390625,7.9996778125,9.46650390625Q7.9384778125,9.46650390625,7.8780078125,9.45719390625Q7.8175278125,9.44789390625,7.7591678125,9.42949390625Q7.7007978125,9.411093906249999,7.6459178125,9.38403390625Q7.5910378125,9.35698390625,7.5409078125,9.32189390625L2.1330078125,5.53636390625ZM13.7738078125,3.64807990625Q13.6442078125,3.46650390625,13.3330078125,3.46650390625L2.6663378125,3.46650390625Q2.3551478125000003,3.46650390625,2.2255328125,3.64807990625L7.9996778125,7.68998390625L13.7738078125,3.64807990625Z" fill-rule="evenodd" fill="#2C2C2C" fill-opacity="1"/></g></g></svg>