<svg width="41" height="40" viewBox="0 0 41 40" fill="none" xmlns="http://www.w3.org/2000/svg">
<path id="Vector" fill-rule="evenodd" clip-rule="evenodd" d="M34.074 26.3915C31.6743 31.4792 26.4982 35 20.5 35C14.5017 35 9.32582 31.4792 6.926 26.3915C5.78403 27.0945 4.43935 27.5 3 27.5C2.63426 27.5 2.27464 27.4738 1.9229 27.4233C4.87063 34.7935 12.0773 40 20.5 40C28.9228 40 36.1295 34.7935 39.077 27.4233C38.7253 27.4738 38.3657 27.5 38 27.5C36.5607 27.5 35.216 27.0945 34.074 26.3915ZM20.5 5C14.5017 5 9.32582 8.52073 6.926 13.6084C5.78403 12.9055 4.43935 12.5 3 12.5C2.63426 12.5 2.27464 12.5262 1.9229 12.5768C4.87063 5.20655 12.0773 0 20.5 0C28.9228 0 36.1295 5.20655 39.077 12.5768C38.7253 12.5262 38.3657 12.5 38 12.5C36.5607 12.5 35.216 12.9055 34.074 13.6084C31.6743 8.52073 26.4982 5 20.5 5ZM3 17.5C1.61929 17.5 0.5 18.6193 0.5 20C0.5 21.3807 1.61929 22.5 3 22.5C4.3807 22.5 5.5 21.3807 5.5 20C5.5 18.6193 4.3807 17.5 3 17.5ZM40.5 20C40.5 18.6193 39.3807 17.5 38 17.5C36.6193 17.5 35.5 18.6193 35.5 20C35.5 21.3807 36.6193 22.5 38 22.5C39.3807 22.5 40.5 21.3807 40.5 20ZM15.5 10C14.1193 10 13 11.1193 13 12.5V20V27.5C13 28.8808 14.1193 30 15.5 30C16.8807 30 18 28.8808 18 27.5V22.5H23V27.5C23 28.8808 24.1193 30 25.5 30C26.8808 30 28 28.8808 28 27.5V20V12.5C28 11.1193 26.8808 10 25.5 10C24.1193 10 23 11.1193 23 12.5V17.5H18V12.5C18 11.1193 16.8807 10 15.5 10Z" fill="black"/>
</svg>
