<svg xmlns="http://www.w3.org/2000/svg" xmlns:xlink="http://www.w3.org/1999/xlink" fill="none" version="1.1" width="40" height="40" viewBox="0 0 40 40"><g><path d="M33.574,26.3915C31.1743,31.4792,25.9982,35,20,35C14.0017,35,8.82582,31.4792,6.426,26.3915C5.28403,27.0945,3.93935,27.5,2.5,27.5C2.13426,27.5,1.77464,27.4738,1.4229,27.4233C4.37063,34.7935,11.5773,40,20,40C28.4228,40,35.6295,34.7935,38.577,27.4233C38.2253,27.4738,37.8657,27.5,37.5,27.5C36.0607,27.5,34.716,27.0945,33.574,26.3915ZM20,5C14.0017,5,8.82582,8.52073,6.426,13.6084C5.28403,12.9055,3.93935,12.5,2.5,12.5C2.13426,12.5,1.77464,12.5262,1.4229,12.5768C4.37063,5.20655,11.5773,0,20,0C28.4228,0,35.6295,5.20655,38.577,12.5768C38.2253,12.5262,37.8657,12.5,37.5,12.5C36.0607,12.5,34.716,12.9055,33.574,13.6084C31.1743,8.52073,25.9982,5,20,5ZM2.5,17.5C1.11929,17.5,0,18.6193,0,20C0,21.3807,1.11929,22.5,2.5,22.5C3.8807,22.5,5,21.3807,5,20C5,18.6193,3.8807,17.5,2.5,17.5ZM40,20C40,18.6193,38.8807,17.5,37.5,17.5C36.1193,17.5,35,18.6193,35,20C35,21.3807,36.1193,22.5,37.5,22.5C38.8807,22.5,40,21.3807,40,20ZM15,10C13.6193,10,12.5,11.1193,12.5,12.5C12.5,12.5,12.5,20,12.5,20C12.5,20,12.5,27.5,12.5,27.5C12.5,28.8808,13.6193,30,15,30C16.3807,30,17.5,28.8808,17.5,27.5C17.5,27.5,17.5,22.5,17.5,22.5C17.5,22.5,22.5,22.5,22.5,22.5C22.5,22.5,22.5,27.5,22.5,27.5C22.5,28.8808,23.6193,30,25,30C26.3808,30,27.5,28.8808,27.5,27.5C27.5,27.5,27.5,20,27.5,20C27.5,20,27.5,12.5,27.5,12.5C27.5,11.1193,26.3808,10,25,10C23.6193,10,22.5,11.1193,22.5,12.5C22.5,12.5,22.5,17.5,22.5,17.5C22.5,17.5,17.5,17.5,17.5,17.5C17.5,17.5,17.5,12.5,17.5,12.5C17.5,11.1193,16.3807,10,15,10Z" fill-rule="evenodd" fill="#000000" fill-opacity="1"/></g></svg>